<svg width="153" height="41" viewBox="0 0 153 41" fill="none" xmlns="http://www.w3.org/2000/svg">
<path d="M15.8791 40.0396C23.3191 40.0396 29.3191 33.7996 30.2791 24.9996H28.5191C27.2391 30.7596 23.5591 34.6796 17.8791 34.6796C10.7591 34.6796 4.59906 28.9196 4.59906 18.4396C4.59906 8.75961 10.7591 3.23961 17.2391 3.23961C22.1191 3.23961 24.6791 5.95961 24.6791 9.63961C24.6791 10.2796 24.5991 10.6796 24.5991 11.3996C24.5991 13.3196 25.6391 14.6796 27.3191 14.6796C29.0791 14.6796 30.1991 13.2396 30.1991 11.0796C30.1991 6.27961 25.7191 0.599609 17.2391 0.599609C8.59906 0.599609 0.0390625 8.03961 0.0390625 21.0796C0.0390625 31.5596 6.43906 40.0396 15.8791 40.0396Z" fill="black"/>
<path d="M72.7003 33.7996L71.9803 33.6396C71.5003 35.1596 70.2203 36.0396 68.9403 36.0396C67.2603 36.0396 66.2203 35.0796 66.2203 33.0796L66.4603 12.1996V11.9596C66.4603 4.51961 61.3403 0.599609 53.6603 0.599609C44.7803 0.599609 40.3003 6.27961 40.3003 10.9996C40.3003 13.4796 41.8203 14.9196 43.4203 14.9196C45.0203 14.9196 45.9803 13.6396 45.9803 12.4396C45.9803 10.5996 45.1003 10.3596 45.1003 8.59961C45.1003 5.71961 47.8203 2.91961 53.1003 2.91961C58.3003 2.91961 61.3403 5.79961 61.3403 11.1596V17.7996C57.8203 18.5196 54.2203 19.3196 50.7003 20.3596C44.5403 22.1996 40.5403 25.4796 40.5403 30.7596C40.5403 35.7996 44.7003 39.8796 50.3803 39.8796C55.1803 39.8796 59.4203 36.8396 61.2603 32.2796H61.5803V34.0396C61.5803 38.1196 63.9803 39.9596 66.7003 39.9596C69.9003 39.9596 72.3003 37.5596 72.7003 33.7996ZM61.3403 20.2796V29.3996C59.6603 32.8396 56.5403 35.5596 52.3803 35.5596C48.3003 35.5596 45.6603 32.8396 45.6603 29.5596C45.6603 26.0396 47.6603 24.2796 51.7403 22.8396C54.7803 21.7996 58.3003 20.9196 61.3403 20.2796Z" fill="black"/>
<path d="M115.905 1.55961H100.545V3.07961H102.625C105.425 3.07961 106.705 3.87961 106.705 5.87961C106.705 6.99961 106.385 8.51961 105.585 10.4396L96.9447 32.0396L87.9047 9.47961C87.4247 8.19961 87.1047 7.07961 87.1047 6.19961C87.1047 3.95961 88.7847 3.07961 91.3447 3.07961H93.5047V1.55961H75.5047V3.07961C78.5447 3.07961 80.0647 3.55961 81.8247 7.95961L94.3847 38.9996H97.0247L110.065 7.07961C111.345 4.03961 112.705 3.07961 115.905 3.07961V1.55961Z" fill="black"/>
<path d="M126.468 15.6396H152.628C152.628 6.43961 147.188 0.599609 138.708 0.599609C129.108 0.599609 121.748 9.15961 121.748 21.0796C121.748 31.3996 128.228 40.0396 138.148 40.0396C146.948 40.0396 151.668 32.1196 152.468 25.6396H150.708C149.588 30.5996 145.908 34.9996 139.988 34.9996C131.828 34.9996 126.388 28.0396 126.388 18.7596C126.388 17.4796 126.388 16.5196 126.468 15.6396ZM137.748 3.23961C144.628 3.23961 147.508 9.07961 147.748 13.1596H126.948C127.748 8.11961 131.908 3.23961 137.748 3.23961Z" fill="black"/>
</svg>
