<svg width="100" height="24" viewBox="0 0 100 24" fill="none" xmlns="http://www.w3.org/2000/svg">
<path d="M0.357422 12.5118C0.357422 14.4898 0.771422 16.3298 1.64542 18.0318C2.47342 19.7338 3.71542 21.1138 5.32542 22.0798C6.93542 23.0918 8.77542 23.5978 10.9374 23.5978C12.6854 23.5978 14.2494 23.1838 15.6294 22.3558C16.9634 21.5278 18.0674 20.4698 18.8494 19.1358C19.6314 17.8018 20.0914 16.4218 20.2754 14.9038H19.0334C18.2974 17.2498 15.9974 19.3658 12.1334 19.3658C10.5694 19.3658 9.14342 18.9518 7.90142 18.1698C6.65942 17.3878 5.64742 16.3298 4.95742 14.9498C4.22142 13.6158 3.85342 12.0978 3.85342 10.4878C3.85342 9.06176 4.17542 7.77376 4.81942 6.57776C5.41742 5.38176 6.33742 4.41576 7.48742 3.72576C8.63742 3.03576 9.97142 2.66776 11.4894 2.66776C14.3874 2.66776 15.8594 4.09376 15.8594 6.11776L15.8134 7.31376C15.8134 8.60176 16.6414 9.52176 17.9294 9.52176C19.4014 9.52176 20.3214 8.46376 20.3214 6.99176C20.3214 5.88776 19.9534 4.82976 19.2634 3.81776C18.5734 2.85176 17.5614 2.02376 16.3194 1.42576C15.0774 0.827759 13.6514 0.551758 12.0414 0.551758C9.87942 0.551758 7.94742 1.05776 6.15342 2.06976C4.35942 3.12776 2.97942 4.55376 1.92142 6.34776C0.863422 8.18776 0.357422 10.2578 0.357422 12.5118Z" fill="#141414"/>
<path d="M48.707 19.1818L47.833 18.8138C47.465 19.6878 46.591 20.1938 45.993 20.1938C44.981 20.1938 44.475 19.6878 44.475 18.6758L44.613 8.09576C44.705 3.08176 41.807 0.551758 35.965 0.551758C34.171 0.551758 32.607 0.827759 31.273 1.42576C29.939 2.02376 28.881 2.75976 28.191 3.67976C27.501 4.64576 27.133 5.61176 27.133 6.66976C27.133 8.46376 28.237 9.56776 29.709 9.56776C30.813 9.56776 31.595 8.87776 31.595 7.91176C31.595 7.49776 30.997 6.71576 30.997 5.74976C30.997 3.77176 32.745 2.43776 35.597 2.43776C38.909 2.43776 40.795 4.23176 40.795 7.49776V10.6258L34.171 11.9138C29.847 12.7878 26.949 14.1678 26.949 17.9858C26.949 21.2058 29.571 23.5978 33.435 23.5978C36.563 23.5978 39.369 21.5738 40.887 18.8598V19.8258C40.887 22.3098 42.359 23.5978 44.567 23.5978C47.143 23.5978 48.293 21.3438 48.707 19.1818ZM34.815 20.2398C32.147 20.2398 30.859 18.9058 30.859 16.9738C30.859 15.0418 32.285 14.2138 34.631 13.7078L40.795 12.4198V16.8818C39.507 18.9058 37.345 20.2398 34.815 20.2398Z" fill="#141414"/>
<path d="M75.7126 1.24176H66.9266V2.89776H68.3526C69.5026 2.89776 70.0546 3.26576 70.0546 4.00176C70.0546 4.36976 69.9166 4.82976 69.6866 5.38176L63.9826 18.7678L58.6466 5.61176C58.4166 5.01376 58.3246 4.55376 58.3246 4.23176C58.3246 3.35776 58.9226 2.89776 60.1186 2.89776H61.4986V1.24176H50.0906V2.89776H50.8726C52.7126 2.89776 53.2186 3.67976 54.1386 5.70376L61.6826 22.9998H64.4886L72.0326 5.51976C72.7686 3.72576 73.5506 2.89776 75.0686 2.89776H75.7126V1.24176Z" fill="#141414"/>
<path d="M99.1762 14.6738H98.0262C96.7842 17.7558 94.2542 19.4118 90.6662 19.4118C88.9182 19.4118 87.4462 18.9978 86.2502 18.2158C85.0542 17.4338 84.1802 16.3758 83.6282 15.1338C83.0302 13.8918 82.7542 12.5578 82.7542 11.1318C82.7542 10.7178 82.7542 10.4418 82.8002 10.2118L99.0382 10.3038C99.0842 10.0738 99.1302 9.70576 99.1302 9.29176C99.1302 7.68176 98.7622 6.20976 97.9802 4.87576C97.1982 3.54176 96.1402 2.48376 94.7602 1.70176C93.3802 0.919759 91.7702 0.551758 89.9762 0.551758C88.0442 0.551758 86.2502 1.05776 84.6402 2.11576C82.9842 3.17376 81.6502 4.59976 80.6842 6.43976C79.7182 8.27976 79.2122 10.3038 79.2122 12.5118C79.2122 14.6278 79.6722 16.5138 80.5922 18.1698C81.4662 19.8718 82.7082 21.1598 84.3182 22.1258C85.9282 23.0918 87.7222 23.5518 89.7462 23.5518C95.3122 23.5518 98.4862 19.8718 99.1762 14.6738ZM89.8382 2.62176C93.5182 2.62176 95.1742 5.42776 95.1742 8.32576L83.0762 8.27976C83.8582 4.82976 86.2042 2.62176 89.8382 2.62176Z" fill="#141414"/>
</svg>
