<svg width="137" height="185" viewBox="0 0 137 185" fill="none" xmlns="http://www.w3.org/2000/svg">
<path d="M55.6718 165.505C61.4718 155.459 56.6446 144.82 47.5683 138.541L45.4683 142.178C48.5556 145.231 49.7965 150.681 46.7965 155.877C42.3965 163.499 33.0879 164.821 24.3411 159.771C16.7201 155.371 14.4935 148.428 17.6435 142.972C19.2935 140.114 21.5658 139.578 23.5612 139.922C24.937 140.139 26.1495 140.839 27.2887 141.266C29.9636 142.233 32.9188 141.514 34.4688 138.83C36.5688 135.192 35.2574 131.664 31.9665 129.764C25.9043 126.264 17.5679 129.303 12.5679 137.963C6.01794 149.308 9.35141 163.934 23.4676 172.084C34.9858 178.734 49.1218 176.85 55.6718 165.505Z" fill="#404040"/>
<path d="M80.9052 99.3996L78.8758 101.115C79.7016 102.284 79.831 103.86 79.181 104.986C78.131 106.805 76.6686 106.538 75.1963 105.688L56.3804 94.4778L56.034 94.2778C46.3345 88.6778 38.4508 93.1328 33.0508 102.486C26.9008 113.138 29.2397 122.687 35.5617 126.337C39.199 128.437 42.9373 127.362 44.7373 124.244C46.3373 121.473 45.5954 118.158 43.084 116.708C41.2653 115.658 40.0493 115.764 38.577 114.914C35.979 113.414 35.0505 110.222 37.3005 106.325C39.5505 102.428 43.6718 101.69 48.0885 104.24L55.0167 108.24L52.722 116.614C50.137 126.092 49.6681 133.904 57.1159 138.204C63.0049 141.604 70.4582 139.094 74.0582 132.859C77.1582 127.489 76.0173 121.866 72.464 117.62L72.714 117.187L72.8872 117.287C78.27 120.164 82.9681 118.027 85.2681 114.043C89.2681 107.115 84.1327 101.609 80.9052 99.3996ZM59.2602 110.69L68.0071 115.74C69.1758 117.916 69.6712 120.857 68.0712 123.629C66.3712 126.573 63.0793 127.675 60.2215 126.025C56.7574 124.025 56.7985 120.354 58.1495 115.014L59.2602 110.69Z" fill="#404040"/>
<path d="M72.0948 37.6595L62.2948 54.6336L66.7116 57.1836L67.5616 55.7114C68.9116 53.3731 70.5508 52.9339 72.3694 53.9839C73.2355 54.4839 74.6077 55.5071 76.1496 57.4365L90.4227 74.9147L67.2701 71.0161C65.5845 70.7357 64.1721 70.3822 63.2194 69.8322C61.4874 68.8322 60.9616 67.1429 62.4616 64.5449L63.4116 62.8994L58.9948 60.3494L45.6448 83.4723L50.0616 86.0223C52.4482 82.0886 55.523 82.3627 60.1469 82.9539L98.7373 87.9135L102.837 80.8121L78.6505 50.1047C75.9864 46.7191 74.3982 44.0701 76.5116 40.2095L72.0948 37.6595Z" fill="#404040"/>
<path d="M94.2345 37.9125L109.685 11.1523C108.955 10.6157 108.349 10.2657 107.656 9.8657C98.0164 4.7621 87.8578 7.5573 82.4078 16.997C76.1578 27.8223 79.8644 42.2022 93.6343 50.1522C106.711 57.7022 120.012 54.0651 126.012 43.6728C133.162 31.2886 124.44 20.5951 118.691 16.3523L116.641 19.903C119.565 23.4387 120.436 28.3295 117.336 33.6989C112.586 41.9261 103.205 42.9759 95.1871 38.4625L94.2345 37.9125ZM87.1271 21.2228C90.1271 16.0267 95.7207 16.1384 99.5812 18.2518L90.0312 34.7929C85.6314 31.2135 84.4771 25.8127 87.1271 21.2228Z" fill="#404040"/>
</svg>
