<svg width="48" height="48" viewBox="0 0 48 48" fill="none" xmlns="http://www.w3.org/2000/svg">
<path fill-rule="evenodd" clip-rule="evenodd" d="M33.584 3.25C35.3247 3.25 36.75 4.6579 36.75 6.392V41.289C36.75 43.0241 35.3246 44.431 33.583 44.431H14.416C12.6753 44.431 11.25 43.0231 11.25 41.289V6.392C11.25 4.65714 12.6751 3.25 14.416 3.25H33.584ZM34.25 38H13.75V41.289C13.75 41.604 13.9973 41.8768 14.3178 41.9239L14.416 41.931H33.583C33.9512 41.931 34.25 41.6361 34.25 41.289V38ZM28.2852 38.75V41.25H19.2852V38.75H28.2852ZM34.25 10H13.75V35.5H34.25V10ZM19 28.8407C20.104 28.8407 21 29.7367 21 30.8407C21 31.9447 20.104 32.8407 19 32.8407C17.896 32.8407 17 31.9447 17 30.8407C17 29.7367 17.896 28.8407 19 28.8407ZM29 28.8407C30.104 28.8407 31 29.7367 31 30.8407C31 31.9447 30.104 32.8407 29 32.8407C27.896 32.8407 27 31.9447 27 30.8407C27 29.7367 27.896 28.8407 29 28.8407ZM24 12.0907C28.2804 12.0907 31.75 15.5603 31.75 19.8407C31.75 24.1211 28.2804 27.5907 24 27.5907C19.7196 27.5907 16.25 24.1211 16.25 19.8407C16.25 15.5603 19.7196 12.0907 24 12.0907ZM24.333 23.5907H23.667C23.0577 23.5907 22.5006 24.0905 22.3151 24.8151C22.8449 24.9938 23.4111 25.0907 24 25.0907C24.5889 25.0907 25.1551 24.9938 25.6836 24.815C25.5121 24.1399 25.0165 23.6599 24.4568 23.5976L24.333 23.5907ZM24 14.5907C21.1004 14.5907 18.75 16.9411 18.75 19.8407C18.75 21.229 19.2887 22.4913 20.1686 23.4301C20.7792 22.1102 22.0062 21.174 23.4685 21.096L23.667 21.0907H24.333C25.8823 21.0907 27.1933 22.0509 27.8324 23.4289C28.7113 22.4913 29.25 21.229 29.25 19.8407C29.25 16.9411 26.8996 14.5907 24 14.5907ZM24 15.8407C25.104 15.8407 26 16.7367 26 17.8407C26 18.9447 25.104 19.8407 24 19.8407C22.896 19.8407 22 18.9447 22 17.8407C22 16.7367 22.896 15.8407 24 15.8407ZM33.584 5.75H14.416C14.0488 5.75 13.75 6.045 13.75 6.392V7.5H34.25V6.392C34.25 6.07705 34.0027 5.80416 33.6822 5.75714L33.584 5.75Z" fill="#2A37DC"/>
<path d="M43.455 15.75L43.748 16.4404C44.8515 19.0409 45.4276 21.8479 45.4276 24.7334C45.4276 27.4386 44.9212 30.0747 43.9487 32.5364L43.748 33.0263L43.455 33.7168L42.0742 33.1308L42.3672 32.4404C43.3923 30.0244 43.9276 27.4167 43.9276 24.7334C43.9276 22.229 43.4613 19.7903 42.5657 17.5121L42.3672 17.0263L42.0742 16.3359L43.455 15.75Z" fill="#2A37DC"/>
<path d="M39.8615 19.7501L40.1542 20.4406C40.7253 21.7878 41.0237 23.241 41.0237 24.7334C41.0237 26.0901 40.7771 27.4144 40.3032 28.6561L40.1542 29.0261L39.8615 29.7166L38.4805 29.1312L38.7732 28.4406C39.2662 27.2777 39.5237 26.0236 39.5237 24.7334C39.5237 23.5722 39.3151 22.4402 38.914 21.3776L38.7732 21.0261L38.4805 20.3356L39.8615 19.7501Z" fill="#2A37DC"/>
<path d="M4.47255 15.75L5.85338 16.3359L5.56041 17.0263C4.53525 19.4423 4 22.0501 4 24.7334C4 27.2378 4.46626 29.6764 5.36193 31.9547L5.56041 32.4404L5.85338 33.1308L4.47255 33.7168L4.17959 33.0263C3.07613 30.4259 2.5 27.6189 2.5 24.7334C2.5 22.0282 3.00637 19.3921 3.97888 16.9304L4.17959 16.4404L4.47255 15.75Z" fill="#2A37DC"/>
<path d="M8.06846 19.7501L9.44949 20.3356L9.15677 21.0261C8.66379 22.189 8.40625 23.4432 8.40625 24.7334C8.40625 25.8945 8.61486 27.0265 9.01596 28.0891L9.15677 28.4406L9.44949 29.1312L8.06846 29.7166L7.77573 29.0261C7.20465 27.6789 6.90625 26.2258 6.90625 24.7334C6.90625 23.3766 7.15286 22.0523 7.62676 20.8106L7.77573 20.4406L8.06846 19.7501Z" fill="#2A37DC"/>
</svg>
