<svg width="48" height="48" viewBox="0 0 48 48" fill="none" xmlns="http://www.w3.org/2000/svg">
<g clip-path="url(#clip0)">
<path d="M39.9998 7.00021C42.3879 7.00021 44.3356 8.87968 44.445 11.2407L44.4498 11.4502V32.2502C44.4498 33.5064 43.9298 34.6407 43.0932 35.4497L48 35.45C48 38.101 45.851 40.25 43.2 40.25H4.8C2.149 40.25 0 38.101 0 35.45L4.90637 35.4497C4.12558 34.6946 3.62054 33.6562 3.55667 32.4998L3.5498 32.2502V11.4502C3.5498 9.0621 5.42926 7.1144 7.79026 7.00506L7.9998 7.00021H39.9998ZM39.9998 9.50021H7.9998C6.97114 9.50021 6.12953 10.2951 6.05514 11.3046L6.0498 11.4502V32.2502C6.0498 33.2789 6.84465 34.1205 7.85418 34.1949L7.9998 34.2002H39.9998C41.0285 34.2002 41.8701 33.4054 41.9445 32.3958L41.9498 32.2502V11.4502C41.9498 10.3726 41.0774 9.50021 39.9998 9.50021ZM28.9915 25.25L33.0815 29.081L31.4105 29.233L31.1075 29.26L31.2335 29.538L32.2475 31.758L31.4995 32.086L30.5325 29.842L30.4105 29.56L30.1865 29.77L28.9995 30.883L28.9915 25.25ZM17.8067 23.865C21.3403 23.865 24.1313 27.0754 24.246 30.9986L24.2497 31.25H21.7497C21.7497 28.5887 20.0361 26.4881 17.9882 26.3702L17.8067 26.365H16.5087C14.4424 26.365 12.6697 28.3895 12.5701 31.0167L12.5657 31.25H10.0657C10.0657 27.2976 12.7831 24.0048 16.2842 23.8693L16.5087 23.865H17.8067ZM17.1575 14.9902C19.4585 14.9902 21.3245 16.8552 21.3245 19.1572C21.3245 21.4582 19.4585 23.3232 17.1575 23.3232C14.8565 23.3232 12.9905 21.4582 12.9905 19.1572C12.9905 16.8552 14.8565 14.9902 17.1575 14.9902ZM33.9998 19.75V22.25H25.9998V19.75H33.9998ZM17.1575 17.4902C16.2385 17.4902 15.4905 18.2382 15.4905 19.1572C15.4905 20.0752 16.2385 20.8232 17.1575 20.8232C18.0765 20.8232 18.8245 20.0752 18.8245 19.1572C18.8245 18.2382 18.0765 17.4902 17.1575 17.4902ZM37.9998 15.25V17.75H25.9998V15.25H37.9998Z" fill="#2A37DC"/>
</g>
<defs>
<clipPath id="clip0">
<rect width="48" height="48" fill="white"/>
</clipPath>
</defs>
</svg>
