<svg width="48" height="48" viewBox="0 0 48 48" fill="none" xmlns="http://www.w3.org/2000/svg">
<path d="M24 4.75C35.6903 4.75 45.25 13.3542 45.25 24C45.25 28.2939 43.6971 32.3773 40.7771 35.7855L40.452 36.164L40.6735 36.6079C41.361 37.9795 42.0415 39.2402 42.72 40.3999L43.059 40.9715L44.4831 43.3378L41.7654 42.846C39.5718 42.4491 37.2574 41.7632 34.9091 40.8139L34.599 40.687L34.2922 40.8414C31.3048 42.3392 27.946 43.1649 24.5384 43.2438L24 43.25C12.3097 43.25 2.75 34.6458 2.75 24C2.75 13.3542 12.3097 4.75 24 4.75ZM13.1941 26.5076H11.8961C9.82947 26.5076 8.0571 28.5315 7.95751 31.1592L7.9531 31.3926L7.1804 31.393C10.2398 36.9215 16.6178 40.75 24 40.75C27.2045 40.75 30.3769 40.0078 33.1708 38.6071L34.4896 37.9444L35.8484 38.4971C36.9445 38.9401 38.0301 39.321 39.0942 39.6368L39.489 39.749L39.148 39.1099L38.793 38.4269L38.4372 37.7255L37.4756 35.7957L38.8788 34.1587C39.6303 33.2816 40.2762 32.3564 40.8132 31.3927L39.1371 31.3926C39.1371 28.7306 37.4238 26.6306 35.3757 26.5128L35.1941 26.5076H33.8961C31.8466 26.5076 30.0866 28.498 29.9603 31.0938C30.364 32.0199 30.6016 33.0531 30.6334 34.1412L30.6371 34.3926H28.1371C28.1371 31.7306 26.4238 29.6306 24.3757 29.5128L24.1941 29.5076H22.8961C20.8295 29.5076 19.0571 31.5315 18.9575 34.1592L18.9531 34.3926H16.4531C16.4531 33.2119 16.6955 32.0901 17.1288 31.0939C17.0069 28.5745 15.3463 26.6262 13.3757 26.5128L13.1941 26.5076ZM24 7.25C13.6352 7.25 5.25 14.797 5.25 24C5.25 25.571 5.49435 27.0938 5.9512 28.539C6.89001 25.9656 9.06318 24.1128 11.6716 24.0119L11.8961 24.0076H13.1941C15.8624 24.0076 18.1071 25.8376 19.0959 28.4232C20.0981 27.5815 21.327 27.0639 22.6716 27.0119L22.8961 27.0076H24.1941C25.6263 27.0076 26.9365 27.5348 27.9959 28.4231C28.9553 25.9105 31.1023 24.1113 33.6716 24.0119L33.8961 24.0076H35.1941C38.367 24.0076 40.9409 26.5952 41.5166 29.964C42.3313 28.0762 42.75 26.0664 42.75 24C42.75 14.797 34.3648 7.25 24 7.25ZM23.5449 18.1324C25.8459 18.1324 27.7119 19.9984 27.7119 22.2994C27.7119 24.6004 25.8459 26.4654 23.5449 26.4654C21.2439 26.4654 19.3779 24.6004 19.3779 22.2994C19.3779 19.9984 21.2439 18.1324 23.5449 18.1324ZM23.5449 20.6324C22.6259 20.6324 21.8779 21.3804 21.8779 22.2994C21.8779 23.2184 22.6259 23.9654 23.5449 23.9654C24.4639 23.9654 25.2119 23.2184 25.2119 22.2994C25.2119 21.3804 24.4639 20.6324 23.5449 20.6324ZM12.5449 15.1324C14.8459 15.1324 16.7119 16.9984 16.7119 19.2994C16.7119 21.6004 14.8459 23.4654 12.5449 23.4654C10.2439 23.4654 8.3779 21.6004 8.3779 19.2994C8.3779 16.9984 10.2439 15.1324 12.5449 15.1324ZM34.5449 15.1324C36.8459 15.1324 38.7119 16.9984 38.7119 19.2994C38.7119 21.6004 36.8459 23.4654 34.5449 23.4654C32.2439 23.4654 30.3779 21.6004 30.3779 19.2994C30.3779 16.9984 32.2439 15.1324 34.5449 15.1324ZM12.5449 17.6324C11.6259 17.6324 10.8779 18.3804 10.8779 19.2994C10.8779 20.2184 11.6259 20.9654 12.5449 20.9654C13.4639 20.9654 14.2119 20.2184 14.2119 19.2994C14.2119 18.3804 13.4639 17.6324 12.5449 17.6324ZM34.5449 17.6324C33.6259 17.6324 32.8779 18.3804 32.8779 19.2994C32.8779 20.2184 33.6259 20.9654 34.5449 20.9654C35.4639 20.9654 36.2119 20.2184 36.2119 19.2994C36.2119 18.3804 35.4639 17.6324 34.5449 17.6324Z" fill="#2A37DC"/>
</svg>
