<svg width="459" height="136" viewBox="0 0 459 136" fill="none" xmlns="http://www.w3.org/2000/svg">
<path d="M54.5152 136C80.1209 136 100.771 114.483 104.075 84.1379H98.0173C93.612 104 80.9469 117.517 61.3985 117.517C36.8941 117.517 15.6938 97.6552 15.6938 61.5173C15.6938 28.1379 36.8941 9.10345 59.1958 9.10345C75.9909 9.10345 84.8015 18.4828 84.8015 31.1724C84.8015 33.3793 84.5261 34.7586 84.5261 37.2414C84.5261 43.8621 88.1054 48.5517 93.8873 48.5517C99.9446 48.5517 103.799 43.5862 103.799 36.1379C103.799 19.5862 88.3808 0 59.1958 0C29.4603 0 0 25.6552 0 70.6207C0 106.759 22.0264 136 54.5152 136Z" fill="black"/>
<path d="M228.046 114.483L225.568 113.931C223.916 119.172 219.511 122.207 215.105 122.207C209.324 122.207 205.744 118.897 205.744 112L206.57 40V39.1724C206.57 13.5172 188.949 0 162.518 0C131.956 0 116.537 19.5862 116.537 35.8621C116.537 44.4138 121.769 49.3793 127.275 49.3793C132.782 49.3793 136.086 44.9655 136.086 40.8276C136.086 34.4828 133.057 33.6552 133.057 27.5862C133.057 17.6552 142.418 8 160.59 8C178.487 8 188.949 17.931 188.949 36.4138V59.3103C176.835 61.7931 164.445 64.5517 152.33 68.1379C131.13 74.4828 117.363 85.7931 117.363 104C117.363 121.379 131.681 135.448 151.229 135.448C167.749 135.448 182.341 124.966 188.674 109.241H189.775V115.31C189.775 129.379 198.035 135.724 207.396 135.724C218.409 135.724 226.669 127.448 228.046 114.483ZM188.949 67.8621V99.3104C183.167 111.172 172.429 120.552 158.112 120.552C144.07 120.552 134.985 111.172 134.985 99.8621C134.985 87.7242 141.868 81.6552 155.91 76.6897C166.372 73.1035 178.487 70.069 188.949 67.8621Z" fill="black"/>
<path d="M354.637 3.31034H301.774V8.55172H308.933C318.569 8.55172 322.974 11.3103 322.974 18.2069C322.974 22.069 321.873 27.3103 319.12 33.931L289.384 108.414L258.272 30.6207C256.62 26.2069 255.519 22.3448 255.519 19.3103C255.519 11.5862 261.301 8.55172 270.111 8.55172H277.545V3.31034H215.596V8.55172C226.058 8.55172 231.29 10.2069 237.347 25.3793L280.574 132.414H289.659L334.538 22.3448C338.943 11.8621 343.624 8.55172 354.637 8.55172V3.31034Z" fill="black"/>
<path d="M368.967 51.8621H459C459 20.1379 440.278 0 411.093 0C378.053 0 352.723 29.5172 352.723 70.6207C352.723 106.207 375.025 136 409.165 136C439.452 136 455.696 108.69 458.449 86.3448H452.392C448.538 103.448 435.872 118.621 415.498 118.621C387.414 118.621 368.692 94.6207 368.692 62.6207C368.692 58.2069 368.692 54.8966 368.967 51.8621ZM407.789 9.10345C431.467 9.10345 441.379 29.2414 442.205 43.3103H370.619C373.373 25.931 387.69 9.10345 407.789 9.10345Z" fill="black"/>
</svg>
